<?xml version="1.0" encoding="iso-8859-1"?>
<!-- Generator: Adobe Illustrator 16.0.0, SVG Export Plug-In . SVG Version: 6.00 Build 0)  -->
<!DOCTYPE svg PUBLIC "-//W3C//DTD SVG 1.1//EN" "http://www.w3.org/Graphics/SVG/1.1/DTD/svg11.dtd">
<svg version="1.1" id="Capa_1" xmlns="http://www.w3.org/2000/svg" xmlns:xlink="http://www.w3.org/1999/xlink" x="0px" y="0px"
	 width="537.218px" height="537.218px" viewBox="0 0 537.218 537.218" style="enable-background:new 0 0 537.218 537.218;"
	 xml:space="preserve">
<g>
	<path d="M505.629,444.763l-17.847-263.486c-0.252-3.762-3.379-6.681-7.146-6.681H56.49c-3.771,0-6.898,2.919-7.15,6.681
		L31.419,445.93c-0.136,1.979,0.553,3.925,1.911,5.377c1.354,1.451,3.255,2.277,5.238,2.277h226.61v33.612l-102.956,21.496
		c-3.423,0.71-5.831,3.79-5.698,7.286c0.135,3.495,2.768,6.389,6.237,6.837l109.632,14.3c0.187,0.019,0.345,0.103,0.53,0.103
		c0.109,0,0.235-0.019,0.345-0.023c0.11,0.005,0.234,0.023,0.344,0.023c0.187,0,0.345-0.084,0.532-0.103l109.632-14.3
		c3.472-0.448,6.1-3.337,6.235-6.837c0.13-3.496-2.278-6.576-5.694-7.286l-104.804-21.879v-33.229h219.04
		c0.037,0.005,0.07,0,0.094,0c3.962,0,7.168-3.211,7.168-7.169C505.815,445.846,505.75,445.295,505.629,444.763z M408.735,385.481
		l-9.833-8.466l-1.083-26.621l9.871-9.119h76.554l2.992,44.206H408.735z M49.875,385.481l2.992-44.206h88.485l9.458,8.732
		l-1.123,27.634l-9.101,7.84H49.875z M146.604,234.703l8.569,7.885l-1.22,29.965l-9.811,8.984H56.915l3.169-46.834H146.604z
		 M477.029,234.703l3.169,46.834H405.17l-10.533-9.651l-1.177-28.913l8.989-8.27H477.029z M406.747,334.106l-9.932-8.597
		l-1.157-28.437l9.087-8.368h75.943l3.075,45.401H406.747z M286.197,385.481l-9.008-8.792v-26.267l10.608-9.147h94.438l8.363,7.738
		l1.167,28.73l-7.93,7.737H286.197z M165.224,385.481l-8.354-8.152l1.118-27.648l9.085-8.405h94.641l8.3,8.032v28.894l-8.464,7.28
		H165.224z M53.354,334.106l3.078-45.401h87.879l8.665,7.981l-1.195,29.453l-9.215,7.967H53.354z M260.906,234.703l9.112,7.927
		v30.039l-9.682,8.863h-90.826l-8.394-8.723l1.239-30.443l8.802-7.664H260.906z M378.166,234.703l8.069,7.033l1.284,31.531
		l-7.962,8.271h-93.855l-8.513-8.849v-30.423l8.064-7.563H378.166z M286.981,334.106l-9.792-8.765v-29.953l7.668-6.684h95.787
		l7.775,6.772l1.265,31.092l-7.253,7.537H286.981z M166.633,334.106l-7.68-7.985l1.218-30.009l8.496-7.407H260.5l9.519,8.765v29.049
		l-8.587,7.588H166.633z M385.321,219.145l-8.069,8.389h-91.629l-8.434-8.76v-29.841h106.904L385.321,219.145z M270.019,218.702
		l-9.796,8.837h-88.404l-8.501-8.837l1.209-29.769h105.492V218.702z M155.899,401.2l9.21-8.55h95.848l9.062,8.887v37.71H154.356
		L155.899,401.2z M277.189,439.247v-38.336l8.886-8.261h98.126l8.484,7.878l1.573,38.719H277.189z M476.548,227.534h-73.86
		l-10.235-9.374l-1.186-29.228h82.668L476.548,227.534z M157.353,188.933l-1.215,29.893l-9.509,8.709H60.571l2.614-38.602H157.353z
		 M49.392,392.65h90.597l8.737,8.573l-1.545,38.023H46.239L49.392,392.65z M265.174,501.842v19.877l-58.593-7.64L265.174,501.842z
		 M279.514,521.966v-20.507l60.434,12.624L279.514,521.966z M401.437,439.247l-1.531-37.607l9.166-8.989h78.654l3.155,46.597
		H401.437z M280.34,30.147c-26.47,0-48.003,21.534-48.003,48.001c0,26.467,21.534,47.996,48.003,47.996
		c26.462,0,47.996-21.534,47.996-48.001C328.336,51.676,306.802,30.147,280.34,30.147z M280.34,117.15
		c-21.513,0-39-17.497-39-39.002s17.487-39.003,39-39.003c21.496,0,38.998,17.497,38.998,39.003S301.836,117.15,280.34,117.15z
		 M206.294,54.735c-0.028-0.296,0.01-0.593,0.101-0.889c0.378-1.181,1.659-1.83,2.835-1.449l12.3,3.995
		c1.181,0.388,1.832,1.659,1.444,2.84c-0.306,0.952-1.185,1.554-2.133,1.554c0,0,0,0-0.009,0l0,0c-0.229,0-0.469-0.035-0.698-0.105
		l-12.295-3.995C206.955,56.399,206.376,55.61,206.294,54.735z M234.028,18.085c-0.733-1.003-0.511-2.413,0.497-3.141l0,0l0,0
		c1.003-0.73,2.417-0.511,3.143,0.497l7.605,10.461c0.73,1.008,0.506,2.413-0.497,3.146c-0.396,0.292-0.866,0.429-1.321,0.429
		c-0.693,0-1.375-0.32-1.815-0.926l0,0l-0.009-0.005L234.028,18.085z M315.604,28.833c-1.004-0.732-1.223-2.137-0.5-3.146
		l7.594-10.461c0.732-1.013,2.146-1.227,3.15-0.497c0.998,0.726,1.218,2.133,0.494,3.141l-7.593,10.461
		c-0.443,0.606-1.125,0.926-1.825,0.926C316.463,29.263,316.006,29.125,315.604,28.833z M337.586,58.894
		c-0.388-1.181,0.262-2.452,1.442-2.835l12.293-4.004c1.19-0.387,2.455,0.269,2.842,1.449c0.379,1.178-0.266,2.45-1.451,2.833
		l-12.298,4.004c-0.229,0.077-0.467,0.11-0.695,0.11C338.771,60.45,337.894,59.844,337.586,58.894z M354.275,101.514
		c-0.308,0.95-1.194,1.556-2.142,1.556c-0.229,0-0.467-0.037-0.695-0.109l-12.298-3.995c-1.186-0.383-1.83-1.652-1.452-2.833
		c0.388-1.181,1.671-1.836,2.843-1.449l12.293,3.995C354.015,99.061,354.653,100.333,354.275,101.514z M326.642,137.284
		c0.729,0.999,0.509,2.413-0.494,3.139c-0.397,0.294-0.868,0.432-1.321,0.432c-0.695,0-1.377-0.319-1.82-0.926l-7.603-10.459
		c-0.728-1.003-0.509-2.413,0.495-3.139c0.998-0.721,2.417-0.511,3.146,0.497L326.642,137.284z M278.263,153.113v-12.928
		c0-1.246,1.004-2.25,2.254-2.25c0.304,0,0.607,0.061,0.883,0.175c0.807,0.341,1.372,1.139,1.372,2.075v12.928
		c0,1.246-1.004,2.252-2.255,2.252C279.271,155.365,278.263,154.359,278.263,153.113z M233.918,139.167
		c-0.044-0.287-0.04-0.579,0.038-0.866c0.063-0.287,0.182-0.562,0.369-0.812l7.593-10.461c0.735-1.013,2.14-1.228,3.146-0.497
		c0.497,0.364,0.808,0.898,0.898,1.478c0.089,0.564-0.035,1.171-0.401,1.673l-7.601,10.461c-0.438,0.606-1.122,0.921-1.82,0.921
		c-0.464,0-0.917-0.133-1.323-0.424C234.315,140.271,234.01,139.737,233.918,139.167z M223.093,96.466
		c0.378,1.185-0.268,2.457-1.454,2.84l0,0v0.004l-12.295,3.995c-0.231,0.075-0.469,0.105-0.693,0.105
		c-0.952,0-1.841-0.602-2.147-1.549c-0.1-0.301-0.119-0.598-0.1-0.894c0.072-0.873,0.661-1.661,1.549-1.948l12.295-3.998
		C221.439,94.641,222.71,95.29,223.093,96.466z M277.898,15.184V2.252c0-1.244,1.004-2.252,2.255-2.252l0,0l0,0
		c1.25,0,2.249,1.008,2.249,2.252v12.941c0,1.242-0.999,2.25-2.249,2.25c-1.237,0-2.255-1.008-2.255-2.25V15.184z"/>
</g>
<g>
</g>
<g>
</g>
<g>
</g>
<g>
</g>
<g>
</g>
<g>
</g>
<g>
</g>
<g>
</g>
<g>
</g>
<g>
</g>
<g>
</g>
<g>
</g>
<g>
</g>
<g>
</g>
<g>
</g>
</svg>
